<svg width="312px" height="63px" viewBox="0 0 312 63" version="1.1" xmlns="http://www.w3.org/2000/svg" xmlns:xlink="http://www.w3.org/1999/xlink">
    <g id="Components" stroke="none" stroke-width="1" fill="none" fill-rule="evenodd">
        <g id="Artboard-3-Copy" transform="translate(-75.000000, -209.000000)">
            <g id="logo" transform="translate(75.000000, 209.000000)">
                <g id="Title">
                    <g id="Church" transform="translate(171.000000, 0.000000)" fill="#3B3B3B">
                        <polygon id="Path" points="140.203056 36.0727273 140.203056 1.27534545 133.233888 1.27534545 133.233888 15.2529455 127.442607 15.2529455 127.442607 1.27534545 120.473438 1.27534545 120.473438 36.0727273 127.442607 36.0727273 127.442607 21.5086545 133.233888 21.5086545 133.233888 36.0727273"></polygon>
                        <path d="M116.710742,26.1515636 L109.741573,26.1515636 C109.692494,27.1290182 109.594337,28.1064727 109.201708,28.8395636 C108.809079,29.6704 108.072899,30.208 106.796854,30.208 C105.520809,30.208 104.882787,29.6215273 104.490157,28.8395636 C103.65582,27.2267636 103.557663,22.8770909 103.557663,18.6740364 C103.557663,14.4709818 103.65582,10.1213091 104.490157,8.50850909 C104.882787,7.72654545 105.520809,7.14007273 106.796854,7.14007273 C108.072899,7.14007273 108.76,7.6288 109.152629,8.45963636 C109.545258,9.19272727 109.643416,10.1701818 109.692494,11.1476364 L116.661663,11.1476364 C116.514427,7.82429091 115.385618,5.08741818 113.569708,3.37687273 C111.802876,1.7152 109.692494,0.884363636 106.796854,0.884363636 C102.870562,0.884363636 100.809258,2.44829091 99.189663,4.35432727 C96.3921798,7.67767273 96.5884944,14.0311273 96.5884944,18.7229091 C96.5884944,23.4146909 96.3921798,29.6704 99.189663,32.9937455 C100.809258,34.8997818 102.870562,36.4637091 106.796854,36.4637091 C109.692494,36.4637091 111.802876,35.6328727 113.569708,33.9712 C115.385618,32.2606545 116.563506,29.4749091 116.710742,26.1515636 Z" id="Path"></path>
                        <path d="M94.1018427,36.0727273 L86.8382023,36.0727273 L82.5683596,22.5349818 L80.261663,22.5349818 L80.261663,36.0727273 L73.2924944,36.0727273 L73.2924944,1.27534545 L83.2554607,1.27534545 C90.8626517,1.27534545 92.9730337,5.23403636 92.9730337,11.8807273 C92.9730337,15.5950545 92.3840899,18.9184 88.997663,21.0199273 L94.1018427,36.0727273 Z M86.0038652,11.8807273 C86.0038652,9.87694545 85.8566292,7.53105455 83.2063821,7.53105455 L80.261663,7.53105455 L80.261663,16.2792727 L83.2063821,16.2792727 C85.8566292,16.2792727 86.0038652,13.8845091 86.0038652,11.8807273 Z" id="Combined-Shape"></path>
                        <path d="M68.5482247,26.7380364 L68.5482247,1.27534545 L61.5790562,1.27534545 L61.5790562,27.0801455 C61.5790562,29.3282909 60.2539326,30.208 58.6834158,30.208 C57.1128989,30.208 55.7877753,29.3282909 55.7877753,27.0801455 L55.7877753,1.27534545 L48.8186068,1.27534545 L48.8186068,26.7380364 C48.8186068,29.5237818 49.7511011,31.8696727 51.4197753,33.5802182 C53.2847641,35.4862545 55.7386967,36.4637091 58.6834158,36.4637091 C61.6281349,36.4637091 64.0820674,35.4862545 65.9470562,33.5802182 C67.6157304,31.8696727 68.5482247,29.5237818 68.5482247,26.7380364 Z" id="Path"></path>
                        <polygon id="Path" points="44.0743371 36.0727273 44.0743371 1.27534545 37.1051686 1.27534545 37.1051686 15.2529455 31.3138877 15.2529455 31.3138877 1.27534545 24.3447191 1.27534545 24.3447191 36.0727273 31.3138877 36.0727273 31.3138877 21.5086545 37.1051686 21.5086545 37.1051686 36.0727273"></polygon>
                        <path d="M20.5820225,26.1515636 L13.6128539,26.1515636 C13.5637753,27.1290182 13.465618,28.1064727 13.0729888,28.8395636 C12.6803596,29.6704 11.9441798,30.208 10.6681348,30.208 C9.3920899,30.208 8.75406743,29.6215273 8.36143821,28.8395636 C7.52710113,27.2267636 7.42894383,22.8770909 7.42894383,18.6740364 C7.42894383,14.4709818 7.52710113,10.1213091 8.36143821,8.50850909 C8.75406743,7.72654545 9.3920899,7.14007273 10.6681348,7.14007273 C11.9441798,7.14007273 12.6312809,7.6288 13.0239101,8.45963636 C13.4165393,9.19272727 13.5146966,10.1701818 13.5637753,11.1476364 L20.5329438,11.1476364 C20.3857079,7.82429091 19.2568989,5.08741818 17.4409888,3.37687273 C15.6741573,1.7152 13.5637753,0.884363636 10.6681348,0.884363636 C6.74184271,0.884363636 4.68053934,2.44829091 3.06094383,4.35432727 C0.263460685,7.67767273 0.459775291,14.0311273 0.459775291,18.7229091 C0.459775291,23.4146909 0.263460685,29.6704 3.06094383,32.9937455 C4.68053934,34.8997818 6.74184271,36.4637091 10.6681348,36.4637091 C13.5637753,36.4637091 15.6741573,35.6328727 17.4409888,33.9712 C19.2568989,32.2606545 20.4347865,29.4749091 20.5820225,26.1515636 Z" id="Path"></path>
                    </g>
                    <path d="M20.2811685,26.7380364 L20.2811685,1.27534545 L13.312,1.27534545 L13.312,27.0801455 C13.312,29.3282909 11.9868764,30.208 10.4163595,30.208 C8.84584265,30.208 7.52071906,29.3282909 7.52071906,27.0801455 L7.52071906,1.27534545 L0.551550517,1.27534545 L0.551550517,26.7380364 C0.551550517,29.5237818 1.4840449,31.8696727 3.15271906,33.5802182 C5.01770782,35.4862545 7.4716404,36.4637091 10.4163595,36.4637091 C13.3610786,36.4637091 15.8150112,35.4862545 17.68,33.5802182 C19.3486741,31.8696727 20.2811685,29.5237818 20.2811685,26.7380364 Z M45.344,36.0727273 L45.344,1.27534545 L38.3748314,1.27534545 L38.3748314,18.2830545 L31.111191,1.27534545 L25.0254382,1.27534545 L25.0254382,36.0727273 L31.9946067,36.0727273 L31.9946067,19.0650182 L39.4054831,36.0727273 L45.344,36.0727273 Z M68.9344719,26.1515636 C68.9344719,19.8469818 67.6584269,17.8920727 63.2413483,16.0837818 L58.8733483,14.3243636 C56.8611236,13.4935273 56.4684944,12.8581818 56.4684944,10.6589091 C56.4684944,9.48596364 56.6157303,8.75287273 57.0574382,8.1664 C57.4500674,7.6288 58.0880899,7.23781818 59.0696629,7.23781818 C60.1003146,7.23781818 60.6892584,7.57992727 61.0818876,8.11752727 C61.6708314,8.89949091 61.6708314,10.0235636 61.6708314,11.2453818 L68.64,11.2453818 C68.64,7.72654545 67.8547415,4.9408 65.9406741,3.18138182 C64.4192359,1.76407273 62.1616179,0.982109091 59.0696629,0.982109091 C56.4194157,0.982109091 54.3090337,1.76407273 52.6403595,3.18138182 C50.5299775,4.98967273 49.4993258,7.67767273 49.4993258,10.9032727 C49.4993258,16.3281455 50.9716854,18.1853091 54.5053483,19.6514909 L58.9224269,21.4597818 C61.4254382,22.4861091 61.9653033,23.0725818 61.9653033,26.3959273 C61.9653033,27.8132364 61.7689887,28.7418182 61.2782022,29.3282909 C60.8364944,29.9147636 60.1493932,30.208 59.0696629,30.208 C57.9899326,30.208 57.3028314,29.8170182 56.9102022,29.3771636 C56.2721797,28.6440727 56.1740224,27.6177455 56.1740224,26.2004364 L49.2048539,26.2004364 C49.2048539,29.7681455 49.7937977,32.2117818 51.5115505,33.9223273 C53.0820674,35.4862545 55.6341573,36.4637091 59.0696629,36.4637091 C62.4560899,36.4637091 65.106337,35.3885091 66.6768539,33.8734545 C68.492764,32.1140364 68.9344719,29.6704 68.9344719,26.1515636 Z M89.9237753,7.53105455 L89.9237753,1.27534545 L71.1757303,1.27534545 L71.1757303,7.53105455 L77.0651685,7.53105455 L77.0651685,36.0727273 L84.0343371,36.0727273 L84.0343371,7.53105455 L89.9237753,7.53105455 Z M112.67991,26.7380364 L112.67991,1.27534545 L105.710742,1.27534545 L105.710742,27.0801455 C105.710742,29.3282909 104.385618,30.208 102.815101,30.208 C101.244584,30.208 99.9194607,29.3282909 99.9194607,27.0801455 L99.9194607,1.27534545 L92.9502921,1.27534545 L92.9502921,26.7380364 C92.9502921,29.5237818 93.8827865,31.8696727 95.5514607,33.5802182 C97.4164494,35.4862545 99.870382,36.4637091 102.815101,36.4637091 C105.75982,36.4637091 108.213753,35.4862545 110.078742,33.5802182 C111.747416,31.8696727 112.67991,29.5237818 112.67991,26.7380364 Z M136.515775,26.1515636 L129.546607,26.1515636 C129.497528,27.1290182 129.399371,28.1064727 129.006742,28.8395636 C128.614112,29.6704 127.877933,30.208 126.601888,30.208 C125.325843,30.208 124.68782,29.6215273 124.295191,28.8395636 C123.460854,27.2267636 123.362697,22.8770909 123.362697,18.6740364 C123.362697,14.4709818 123.460854,10.1213091 124.295191,8.50850909 C124.68782,7.72654545 125.325843,7.14007273 126.601888,7.14007273 C127.877933,7.14007273 128.565034,7.6288 128.957663,8.45963636 C129.350292,9.19272727 129.448449,10.1701818 129.497528,11.1476364 L136.466697,11.1476364 C136.319461,7.82429091 135.190652,5.08741818 133.374742,3.37687273 C131.60791,1.7152 129.497528,0.884363636 126.601888,0.884363636 C122.675595,0.884363636 120.614292,2.44829091 118.994697,4.35432727 C116.197213,7.67767273 116.393528,14.0311273 116.393528,18.7229091 C116.393528,23.4146909 116.197213,29.6704 118.994697,32.9937455 C120.614292,34.8997818 122.675595,36.4637091 126.601888,36.4637091 C129.497528,36.4637091 131.60791,35.6328727 133.374742,33.9712 C135.190652,32.2606545 136.368539,29.4749091 136.515775,26.1515636 Z M161.971236,36.0727273 L153.873258,15.7416727 L160.842427,1.27534545 L153.873258,1.27534545 L147.24764,16.2304 L147.24764,1.27534545 L140.278472,1.27534545 L140.278472,36.0727273 L147.24764,36.0727273 L147.24764,28.0576 L149.505258,23.3658182 L154.511281,36.0727273 L161.971236,36.0727273 Z" id="Unstuck" fill="#B1C63A"></path>
                </g>
                <polygon id="Line" fill-opacity="0.5" fill="#3B3B3B" fill-rule="nonzero" points="0.584269663 58.1818182 46.8038509 58.1818182 46.8038509 55.8545455 0.584269663 55.8545455"></polygon>
                <path d="M71.6270798,62.8363636 L69.7433944,62.8363636 C69.5320825,62.8363636 69.3585074,62.7837581 69.222664,62.6785455 C69.0868207,62.5733328 68.988713,62.4425705 68.9283382,62.2862545 L67.9502708,59.6258909 L62.5256191,59.6258909 L61.5475517,62.2862545 C61.4992518,62.424534 61.4041629,62.5507873 61.262282,62.6650182 C61.1204012,62.7792491 60.9468261,62.8363636 60.7415517,62.8363636 L58.8488101,62.8363636 L63.9927202,49.7960727 L66.4831697,49.7960727 L71.6270798,62.8363636 Z M63.1504955,57.9124364 L67.3253944,57.9124364 L65.7315067,53.5746909 C65.6590569,53.3823021 65.5790615,53.1553468 65.491518,52.8938182 C65.4039745,52.6322896 65.3179416,52.3482197 65.2334168,52.0416 C65.1488921,52.3482197 65.0658779,52.6337926 64.9843719,52.8983273 C64.9028659,53.1628619 64.8228704,53.3943263 64.7443831,53.5927273 L63.1504955,57.9124364 Z M88.4084728,52.1678545 C88.3420605,52.3001219 88.2650837,52.3933088 88.1775402,52.4474182 C88.0899967,52.5015275 87.9858517,52.5285818 87.865102,52.5285818 C87.7443523,52.5285818 87.608511,52.4819883 87.4575739,52.3888 C87.3066368,52.2956117 87.1285338,52.1919036 86.9232593,52.0776727 C86.7179849,51.9634419 86.4779985,51.8597338 86.203293,51.7665455 C85.9285875,51.6733571 85.6040777,51.6267636 85.2297537,51.6267636 C84.8916546,51.6267636 84.5973317,51.667345 84.3467762,51.7485091 C84.0962206,51.8296731 83.8849119,51.9423993 83.7128436,52.0866909 C83.5407753,52.2309825 83.4124807,52.4038293 83.3279559,52.6052364 C83.2434312,52.8066434 83.2011694,53.0275867 83.2011694,53.2680727 C83.2011694,53.5746924 83.2872023,53.830205 83.4592706,54.0346182 C83.6313388,54.2390313 83.8592504,54.4133811 84.1430121,54.5576727 C84.4267738,54.7019644 84.7497744,54.8312237 85.1120234,54.9454545 C85.4742724,55.0596854 85.8440627,55.1814297 86.2214054,55.3106909 C86.5987481,55.4399522 86.9685384,55.5902537 87.3307874,55.7616 C87.6930364,55.9329463 88.0160369,56.1493805 88.2997986,56.4109091 C88.5835604,56.6724377 88.8114719,56.9925799 88.9835402,57.3713455 C89.1556085,57.750111 89.2416413,58.2100337 89.2416413,58.7511273 C89.2416413,59.3403181 89.140515,59.8919247 88.9382593,60.4059636 C88.7360036,60.9200026 88.4401714,61.3679011 88.0507537,61.7496727 C87.661336,62.1314443 87.1858913,62.4320474 86.6244054,62.6514909 C86.0629194,62.8709344 85.4199371,62.9806545 84.6954391,62.9806545 C84.2788527,62.9806545 83.86831,62.9400731 83.4637986,62.8589091 C83.0592873,62.777745 82.6713848,62.6620129 82.3000795,62.5117091 C81.9287743,62.3614053 81.5816242,62.1810435 81.2586189,61.9706182 C80.9356135,61.7601929 80.647328,61.5257225 80.3937537,61.2672 L81.1001357,60.1038545 C81.166548,60.0196844 81.2465435,59.9490427 81.3401245,59.8919273 C81.4337055,59.8348118 81.5378505,59.8062545 81.6525627,59.8062545 C81.8034998,59.8062545 81.9665094,59.8678782 82.1415964,59.9911273 C82.3166834,60.1143764 82.5234641,60.2511508 82.7619447,60.4014545 C83.0004253,60.5517583 83.2811641,60.6885327 83.6041694,60.8117818 C83.9271748,60.9350309 84.3150773,60.9966545 84.7678885,60.9966545 C85.4621991,60.9966545 85.9995271,60.8328259 86.3798885,60.5051636 C86.76025,60.1775014 86.9504279,59.7070576 86.9504279,59.0938182 C86.9504279,58.7511256 86.864395,58.4715647 86.6923267,58.2551273 C86.5202585,58.0386898 86.2923469,57.856825 86.0085852,57.7095273 C85.7248234,57.5622296 85.4018229,57.4374793 85.0395739,57.3352727 C84.6773249,57.2330662 84.309044,57.121843 83.93472,57.0016 C83.560396,56.881357 83.1921151,56.7370675 82.8298661,56.5687273 C82.4676171,56.400387 82.1446165,56.1809468 81.8608548,55.9104 C81.5770931,55.6398532 81.3491815,55.3016748 81.1771133,54.8958545 C81.005045,54.4900343 80.9190121,53.9895302 80.9190121,53.3943273 C80.9190121,52.9193673 81.0141011,52.4564386 81.2042818,52.0055273 C81.3944625,51.5546159 81.6721826,51.1548139 82.0374503,50.8061091 C82.4027181,50.4574043 82.8509945,50.1778435 83.382293,49.9674182 C83.9135916,49.7569929 84.5203495,49.6517818 85.2025852,49.6517818 C85.975383,49.6517818 86.6877954,49.772023 87.3398436,50.0125091 C87.9918918,50.2529951 88.5473319,50.5896706 89.0061807,51.0225455 L88.4084728,52.1678545 Z M106.539237,52.1678545 C106.472824,52.3001219 106.395848,52.3933088 106.308304,52.4474182 C106.220761,52.5015275 106.116616,52.5285818 105.995866,52.5285818 C105.875116,52.5285818 105.739275,52.4819883 105.588338,52.3888 C105.437401,52.2956117 105.259298,52.1919036 105.054023,52.0776727 C104.848749,51.9634419 104.608762,51.8597338 104.334057,51.7665455 C104.059351,51.6733571 103.734841,51.6267636 103.360518,51.6267636 C103.022418,51.6267636 102.728096,51.667345 102.47754,51.7485091 C102.226984,51.8296731 102.015676,51.9423993 101.843607,52.0866909 C101.671539,52.2309825 101.543245,52.4038293 101.45872,52.6052364 C101.374195,52.8066434 101.331933,53.0275867 101.331933,53.2680727 C101.331933,53.5746924 101.417966,53.830205 101.590034,54.0346182 C101.762103,54.2390313 101.990014,54.4133811 102.273776,54.5576727 C102.557538,54.7019644 102.880538,54.8312237 103.242787,54.9454545 C103.605036,55.0596854 103.974826,55.1814297 104.352169,55.3106909 C104.729512,55.4399522 105.099302,55.5902537 105.461551,55.7616 C105.8238,55.9329463 106.146801,56.1493805 106.430562,56.4109091 C106.714324,56.6724377 106.942236,56.9925799 107.114304,57.3713455 C107.286372,57.750111 107.372405,58.2100337 107.372405,58.7511273 C107.372405,59.3403181 107.271279,59.8919247 107.069023,60.4059636 C106.866767,60.9200026 106.570935,61.3679011 106.181518,61.7496727 C105.7921,62.1314443 105.316655,62.4320474 104.755169,62.6514909 C104.193683,62.8709344 103.550701,62.9806545 102.826203,62.9806545 C102.409617,62.9806545 101.999074,62.9400731 101.594562,62.8589091 C101.190051,62.777745 100.802149,62.6620129 100.430843,62.5117091 C100.059538,62.3614053 99.7123881,62.1810435 99.3893827,61.9706182 C99.0663773,61.7601929 98.7780918,61.5257225 98.5245175,61.2672 L99.2308995,60.1038545 C99.2973119,60.0196844 99.3773073,59.9490427 99.4708883,59.8919273 C99.5644693,59.8348118 99.6686143,59.8062545 99.7833265,59.8062545 C99.9342636,59.8062545 100.097273,59.8678782 100.27236,59.9911273 C100.447447,60.1143764 100.654228,60.2511508 100.892709,60.4014545 C101.131189,60.5517583 101.411928,60.6885327 101.734933,60.8117818 C102.057939,60.9350309 102.445841,60.9966545 102.898652,60.9966545 C103.592963,60.9966545 104.130291,60.8328259 104.510652,60.5051636 C104.891014,60.1775014 105.081192,59.7070576 105.081192,59.0938182 C105.081192,58.7511256 104.995159,58.4715647 104.823091,58.2551273 C104.651022,58.0386898 104.423111,57.856825 104.139349,57.7095273 C103.855587,57.5622296 103.532587,57.4374793 103.170338,57.3352727 C102.808089,57.2330662 102.439808,57.121843 102.065484,57.0016 C101.69116,56.881357 101.322879,56.7370675 100.96063,56.5687273 C100.598381,56.400387 100.27538,56.1809468 99.9916186,55.9104 C99.7078569,55.6398532 99.4799453,55.3016748 99.3078771,54.8958545 C99.1358088,54.4900343 99.0497759,53.9895302 99.0497759,53.3943273 C99.0497759,52.9193673 99.1448649,52.4564386 99.3350456,52.0055273 C99.5252263,51.5546159 99.8029464,51.1548139 100.168214,50.8061091 C100.533482,50.4574043 100.981758,50.1778435 101.513057,49.9674182 C102.044355,49.7569929 102.651113,49.6517818 103.333349,49.6517818 C104.106147,49.6517818 104.818559,49.772023 105.470607,50.0125091 C106.122656,50.2529951 106.678096,50.5896706 107.136944,51.0225455 L106.539237,52.1678545 Z M125.910697,49.7960727 L125.910697,51.7259636 L120.105686,51.7259636 L120.105686,55.3422545 L124.679057,55.3422545 L124.679057,57.2090182 L120.105686,57.2090182 L120.105686,60.8974545 L125.910697,60.8974545 L125.910697,62.8363636 L117.651461,62.8363636 L117.651461,49.7960727 L125.910697,49.7960727 Z M143.452809,52.1678545 C143.386397,52.3001219 143.30942,52.3933088 143.221877,52.4474182 C143.134333,52.5015275 143.030188,52.5285818 142.909438,52.5285818 C142.788689,52.5285818 142.652847,52.4819883 142.50191,52.3888 C142.350973,52.2956117 142.17287,52.1919036 141.967596,52.0776727 C141.762321,51.9634419 141.522335,51.8597338 141.247629,51.7665455 C140.972924,51.6733571 140.648414,51.6267636 140.27409,51.6267636 C139.935991,51.6267636 139.641668,51.667345 139.391113,51.7485091 C139.140557,51.8296731 138.929248,51.9423993 138.75718,52.0866909 C138.585112,52.2309825 138.456817,52.4038293 138.372292,52.6052364 C138.287768,52.8066434 138.245506,53.0275867 138.245506,53.2680727 C138.245506,53.5746924 138.331539,53.830205 138.503607,54.0346182 C138.675675,54.2390313 138.903587,54.4133811 139.187349,54.5576727 C139.47111,54.7019644 139.794111,54.8312237 140.15636,54.9454545 C140.518609,55.0596854 140.888399,55.1814297 141.265742,55.3106909 C141.643085,55.4399522 142.012875,55.5902537 142.375124,55.7616 C142.737373,55.9329463 143.060373,56.1493805 143.344135,56.4109091 C143.627897,56.6724377 143.855808,56.9925799 144.027877,57.3713455 C144.199945,57.750111 144.285978,58.2100337 144.285978,58.7511273 C144.285978,59.3403181 144.184851,59.8919247 143.982596,60.4059636 C143.78034,60.9200026 143.484508,61.3679011 143.09509,61.7496727 C142.705672,62.1314443 142.230228,62.4320474 141.668742,62.6514909 C141.107256,62.8709344 140.464274,62.9806545 139.739776,62.9806545 C139.323189,62.9806545 138.912646,62.9400731 138.508135,62.8589091 C138.103624,62.777745 137.715721,62.6620129 137.344416,62.5117091 C136.973111,62.3614053 136.625961,62.1810435 136.302955,61.9706182 C135.97995,61.7601929 135.691664,61.5257225 135.43809,61.2672 L136.144472,60.1038545 C136.210884,60.0196844 136.29088,59.9490427 136.384461,59.8919273 C136.478042,59.8348118 136.582187,59.8062545 136.696899,59.8062545 C136.847836,59.8062545 137.010846,59.8678782 137.185933,59.9911273 C137.36102,60.1143764 137.567801,60.2511508 137.806281,60.4014545 C138.044762,60.5517583 138.3255,60.6885327 138.648506,60.8117818 C138.971511,60.9350309 139.359414,60.9966545 139.812225,60.9966545 C140.506536,60.9966545 141.043863,60.8328259 141.424225,60.5051636 C141.804586,60.1775014 141.994764,59.7070576 141.994764,59.0938182 C141.994764,58.7511256 141.908731,58.4715647 141.736663,58.2551273 C141.564595,58.0386898 141.336683,57.856825 141.052922,57.7095273 C140.76916,57.5622296 140.446159,57.4374793 140.08391,57.3352727 C139.721661,57.2330662 139.35338,57.121843 138.979056,57.0016 C138.604732,56.881357 138.236451,56.7370675 137.874202,56.5687273 C137.511953,56.400387 137.188953,56.1809468 136.905191,55.9104 C136.62143,55.6398532 136.393518,55.3016748 136.22145,54.8958545 C136.049381,54.4900343 135.963349,53.9895302 135.963349,53.3943273 C135.963349,52.9193673 136.058437,52.4564386 136.248618,52.0055273 C136.438799,51.5546159 136.716519,51.1548139 137.081787,50.8061091 C137.447054,50.4574043 137.895331,50.1778435 138.426629,49.9674182 C138.957928,49.7569929 139.564686,49.6517818 140.246922,49.6517818 C141.019719,49.6517818 141.732132,49.772023 142.38418,50.0125091 C143.036228,50.2529951 143.591668,50.5896706 144.050517,51.0225455 L143.452809,52.1678545 Z M161.583573,52.1678545 C161.517161,52.3001219 161.440184,52.3933088 161.35264,52.4474182 C161.265097,52.5015275 161.160952,52.5285818 161.040202,52.5285818 C160.919453,52.5285818 160.783611,52.4819883 160.632674,52.3888 C160.481737,52.2956117 160.303634,52.1919036 160.09836,52.0776727 C159.893085,51.9634419 159.653099,51.8597338 159.378393,51.7665455 C159.103688,51.6733571 158.779178,51.6267636 158.404854,51.6267636 C158.066755,51.6267636 157.772432,51.667345 157.521876,51.7485091 C157.271321,51.8296731 157.060012,51.9423993 156.887944,52.0866909 C156.715876,52.2309825 156.587581,52.4038293 156.503056,52.6052364 C156.418531,52.8066434 156.37627,53.0275867 156.37627,53.2680727 C156.37627,53.5746924 156.462303,53.830205 156.634371,54.0346182 C156.806439,54.2390313 157.034351,54.4133811 157.318112,54.5576727 C157.601874,54.7019644 157.924875,54.8312237 158.287124,54.9454545 C158.649373,55.0596854 159.019163,55.1814297 159.396506,55.3106909 C159.773848,55.4399522 160.143639,55.5902537 160.505888,55.7616 C160.868137,55.9329463 161.191137,56.1493805 161.474899,56.4109091 C161.758661,56.6724377 161.986572,56.9925799 162.15864,57.3713455 C162.330709,57.750111 162.416742,58.2100337 162.416742,58.7511273 C162.416742,59.3403181 162.315615,59.8919247 162.11336,60.4059636 C161.911104,60.9200026 161.615272,61.3679011 161.225854,61.7496727 C160.836436,62.1314443 160.360992,62.4320474 159.799506,62.6514909 C159.23802,62.8709344 158.595037,62.9806545 157.870539,62.9806545 C157.453953,62.9806545 157.04341,62.9400731 156.638899,62.8589091 C156.234387,62.777745 155.846485,62.6620129 155.47518,62.5117091 C155.103875,62.3614053 154.756724,62.1810435 154.433719,61.9706182 C154.110714,61.7601929 153.822428,61.5257225 153.568854,61.2672 L154.275236,60.1038545 C154.341648,60.0196844 154.421644,59.9490427 154.515225,59.8919273 C154.608806,59.8348118 154.712951,59.8062545 154.827663,59.8062545 C154.9786,59.8062545 155.14161,59.8678782 155.316697,59.9911273 C155.491784,60.1143764 155.698564,60.2511508 155.937045,60.4014545 C156.175526,60.5517583 156.456264,60.6885327 156.77927,60.8117818 C157.102275,60.9350309 157.490178,60.9966545 157.942989,60.9966545 C158.637299,60.9966545 159.174627,60.8328259 159.554989,60.5051636 C159.93535,60.1775014 160.125528,59.7070576 160.125528,59.0938182 C160.125528,58.7511256 160.039495,58.4715647 159.867427,58.2551273 C159.695359,58.0386898 159.467447,57.856825 159.183685,57.7095273 C158.899924,57.5622296 158.576923,57.4374793 158.214674,57.3352727 C157.852425,57.2330662 157.484144,57.121843 157.10982,57.0016 C156.735496,56.881357 156.367215,56.7370675 156.004966,56.5687273 C155.642717,56.400387 155.319717,56.1809468 155.035955,55.9104 C154.752193,55.6398532 154.524282,55.3016748 154.352213,54.8958545 C154.180145,54.4900343 154.094112,53.9895302 154.094112,53.3943273 C154.094112,52.9193673 154.189201,52.4564386 154.379382,52.0055273 C154.569563,51.5546159 154.847283,51.1548139 155.212551,50.8061091 C155.577818,50.4574043 156.026095,50.1778435 156.557393,49.9674182 C157.088692,49.7569929 157.69545,49.6517818 158.377685,49.6517818 C159.150483,49.6517818 159.862896,49.772023 160.514944,50.0125091 C161.166992,50.2529951 161.722432,50.5896706 162.181281,51.0225455 L161.583573,52.1678545 Z M179.270584,57.4254545 C179.373221,57.6178434 179.46831,57.8177444 179.555854,58.0251636 C179.643397,58.2325829 179.72943,58.441502 179.813955,58.6519273 C179.89848,58.4354898 179.986022,58.2220617 180.076584,58.0116364 C180.167146,57.8012111 180.263745,57.599807 180.366382,57.4074182 L184.242427,50.1838545 C184.290727,50.0936723 184.340535,50.0215275 184.391854,49.9674182 C184.443172,49.9133088 184.500528,49.8742304 184.563921,49.8501818 C184.627315,49.8261332 184.698254,49.8111031 184.776741,49.8050909 C184.855229,49.7990788 184.948808,49.7960727 185.057483,49.7960727 L186.895887,49.7960727 L186.895887,62.8363636 L184.749573,62.8363636 L184.749573,54.4133818 C184.749573,54.2570659 184.754101,54.0857221 184.763157,53.8993455 C184.772213,53.7129688 184.785797,53.5235888 184.80391,53.3312 L180.846359,60.7261091 C180.755797,60.8944493 180.638068,61.0252117 180.493168,61.1184 C180.348269,61.2115883 180.179222,61.2581818 179.986022,61.2581818 L179.650944,61.2581818 C179.457744,61.2581818 179.288697,61.2115883 179.143798,61.1184 C178.998898,61.0252117 178.881169,60.8944493 178.790607,60.7261091 L174.778719,53.3041455 C174.802869,53.5025464 174.819472,53.6964354 174.828528,53.8858182 C174.837584,54.0752009 174.842112,54.2510537 174.842112,54.4133818 L174.842112,62.8363636 L172.695798,62.8363636 L172.695798,49.7960727 L174.534202,49.7960727 C174.642877,49.7960727 174.736456,49.7990788 174.814944,49.8050909 C174.893431,49.8111031 174.96437,49.8261332 175.027764,49.8501818 C175.091157,49.8742304 175.150022,49.9133088 175.204359,49.9674182 C175.258697,50.0215275 175.310015,50.0936723 175.358314,50.1838545 L179.270584,57.4254545 Z M206.213011,49.7960727 L206.213011,51.7259636 L200.408,51.7259636 L200.408,55.3422545 L204.98137,55.3422545 L204.98137,57.2090182 L200.408,57.2090182 L200.408,60.8974545 L206.213011,60.8974545 L206.213011,62.8363636 L197.953775,62.8363636 L197.953775,49.7960727 L206.213011,49.7960727 Z M218.013505,49.7960727 C218.12218,49.7960727 218.212741,49.8005818 218.28519,49.8096 C218.35764,49.8186182 218.422542,49.8366544 218.479898,49.8637091 C218.537254,49.8907638 218.5931,49.9298422 218.647438,49.9809455 C218.701775,50.0320487 218.762149,50.0996844 218.828561,50.1838545 L225.702202,58.9044364 C225.678052,58.6940111 225.661449,58.488098 225.652393,58.2866909 C225.643336,58.0852838 225.638808,57.8974069 225.638808,57.7230545 L225.638808,49.7960727 L227.785123,49.7960727 L227.785123,62.8363636 L226.526314,62.8363636 C226.333114,62.8363636 226.173124,62.8063033 226.046336,62.7461818 C225.919549,62.6860603 225.795783,62.5778432 225.675033,62.4215273 L218.828561,53.7370182 C218.846674,53.929407 218.860258,54.12029 218.869314,54.3096727 C218.87837,54.4990555 218.882898,54.6719022 218.882898,54.8282182 L218.882898,62.8363636 L216.736584,62.8363636 L216.736584,49.7960727 L218.013505,49.7960727 Z M248.071258,49.7960727 L248.071258,51.7890909 L244.131819,51.7890909 L244.131819,62.8363636 L241.695707,62.8363636 L241.695707,51.7890909 L237.738156,51.7890909 L237.738156,49.7960727 L248.071258,49.7960727 Z" id="ASSESSMENT" fill-opacity="0.5" fill="#3B3B3B"></path>
                <polygon id="Line-Copy-5" fill-opacity="0.5" fill="#3B3B3B" fill-rule="nonzero" points="264.674157 58.1818182 310.893739 58.1818182 310.893739 55.8545455 264.674157 55.8545455"></polygon>
            </g>
        </g>
    </g>
</svg>
